<?xml version="1.0" encoding="UTF-8" standalone="no"?>
<svg
   xmlns:dc="http://purl.org/dc/elements/1.1/"
   xmlns:cc="http://creativecommons.org/ns#"
   xmlns:rdf="http://www.w3.org/1999/02/22-rdf-syntax-ns#"
   xmlns:svg="http://www.w3.org/2000/svg"
   xmlns="http://www.w3.org/2000/svg"
   xmlns:sodipodi="http://sodipodi.sourceforge.net/DTD/sodipodi-0.dtd"
   xmlns:inkscape="http://www.inkscape.org/namespaces/inkscape"
   inkscape:version="1.0 (4035a4fb49, 2020-05-01)"
   sodipodi:docname="colorswitch.svg"
   id="svg4"
   version="1.1"
   viewBox="0 0 24 24"
   height="24"
   width="24">
  <metadata
     id="metadata10">
    <rdf:RDF>
      <cc:Work
         rdf:about="">
        <dc:format>image/svg+xml</dc:format>
        <dc:type
           rdf:resource="http://purl.org/dc/dcmitype/StillImage" />
      </cc:Work>
    </rdf:RDF>
  </metadata>
  <defs
     id="defs8" />
  <sodipodi:namedview
     inkscape:current-layer="svg4"
     inkscape:window-maximized="0"
     inkscape:window-y="112"
     inkscape:window-x="737"
     inkscape:cy="14.928572"
     inkscape:cx="9.8794949"
     inkscape:zoom="12.123935"
     showgrid="false"
     id="namedview6"
     inkscape:window-height="480"
     inkscape:window-width="655"
     inkscape:pageshadow="2"
     inkscape:pageopacity="0"
     guidetolerance="10"
     gridtolerance="10"
     objecttolerance="10"
     borderopacity="1"
     bordercolor="#666666"
     pagecolor="#ffffff" />
  <path
     style="fill:#ffffff"
     id="path2"
     d="M17.542 13.147l-7.455-6.667 1.334-1.49c.822.736 2.087.666 2.822-.159l3.503-3.831c.593-.663 1.414-1 2.238-1 1.666 0 3.016 1.358 3.016 2.996 0 .723-.271 1.435-.78 2.005l-3.503 3.83c-.735.824-.666 2.087.158 2.825l-1.333 1.491zm-4.314-1.175l-7.791 8.65c-.314.352-1.322.323-1.853.557.172-.554.048-1.538.362-1.89l7.791-8.651-1.491-1.333-7.9 8.794c-1.277 1.423-.171 2.261-1.149 4.052-.135.244-.197.48-.197.698 0 .661.54 1.151 1.141 1.151.241 0 .492-.079.724-.256 1.733-1.332 2.644-.184 3.954-1.647l7.9-8.792-1.491-1.333z" />
</svg>
